<?xml version="1.0" standalone="no"?>
<!DOCTYPE svg PUBLIC "-//W3C//DTD SVG 20010904//EN"
 "http://www.w3.org/TR/2001/REC-SVG-20010904/DTD/svg10.dtd">
<svg version="1.0" xmlns="http://www.w3.org/2000/svg"
 width="700.000000pt" height="700.000000pt" viewBox="0 0 700.000000 700.000000"
 preserveAspectRatio="xMidYMid meet">
<metadata>
Created by potrace 1.14, written by Peter Selinger 2001-2017
</metadata>
<g transform="translate(0.000000,700.000000) scale(0.100000,-0.100000)"
fill="#000000" stroke="none">
<path d="M3308 6955 c-2 -1 -48 -6 -103 -10 -55 -4 -106 -8 -115 -10 -8 -1
-37 -6 -65 -9 -83 -11 -118 -17 -160 -26 -22 -5 -56 -12 -75 -15 -156 -27
-440 -116 -645 -203 -92 -39 -316 -153 -400 -204 -49 -30 -101 -61 -114 -69
-14 -7 -30 -18 -35 -22 -6 -4 -47 -33 -91 -64 -208 -147 -414 -332 -589 -528
-19 -22 -42 -47 -49 -55 -31 -34 -157 -200 -209 -275 -124 -179 -247 -402
-337 -612 -46 -107 -152 -414 -165 -476 -3 -12 -16 -74 -30 -137 -33 -153 -35
-162 -47 -255 -5 -44 -12 -91 -14 -104 -9 -50 -19 -270 -18 -406 0 -160 7
-273 29 -433 2 -18 7 -54 10 -79 8 -71 41 -226 75 -353 245 -922 856 -1698
1694 -2151 86 -46 205 -104 320 -154 153 -68 485 -168 660 -200 252 -46 407
-59 670 -59 190 0 304 6 445 25 72 10 88 12 163 24 272 45 607 153 882 285
475 229 886 557 1208 965 357 452 591 962 695 1515 19 99 24 135 37 248 3 26
8 63 11 82 10 60 11 480 3 575 -11 125 -24 229 -40 315 -17 99 -22 122 -44
215 -9 39 -18 78 -20 88 -32 153 -167 504 -271 702 -73 141 -263 447 -294 475
-3 3 -21 25 -40 50 -180 235 -418 470 -665 656 -80 61 -260 184 -269 184 -2 0
-35 19 -72 42 -65 39 -316 168 -328 168 -3 0 -29 11 -58 24 -252 115 -686 229
-957 252 -41 3 -84 8 -95 11 -23 5 -482 13 -488 8z m392 -349 c262 -14 547
-71 810 -161 58 -20 114 -40 125 -44 11 -5 49 -21 85 -36 176 -74 410 -205
570 -318 575 -407 992 -986 1194 -1657 25 -83 69 -270 81 -340 3 -19 7 -46 10
-60 7 -37 19 -140 30 -255 6 -57 6 -415 1 -460 -2 -16 -7 -66 -10 -110 -4 -44
-9 -87 -11 -95 -2 -8 -7 -33 -10 -55 -6 -45 -10 -65 -25 -140 -6 -27 -12 -59
-14 -70 -10 -51 -62 -230 -93 -319 -67 -194 -166 -409 -254 -554 -21 -35 -39
-66 -39 -67 0 -12 -209 -303 -244 -341 -6 -6 -29 -33 -51 -60 -56 -68 -257
-270 -335 -335 -426 -360 -942 -603 -1475 -695 -132 -22 -134 -23 -205 -29
-36 -3 -85 -8 -110 -11 -60 -5 -381 -6 -450 0 -77 6 -226 23 -270 31 -14 3
-41 7 -60 10 -171 28 -460 113 -645 190 -555 230 -1049 634 -1382 1130 -117
174 -232 389 -298 555 -20 52 -41 104 -46 115 -53 121 -129 434 -163 665 -28
192 -29 648 -1 810 2 14 6 42 9 63 7 47 18 109 20 122 22 104 32 147 57 235
80 295 195 556 372 845 197 322 512 651 852 892 336 237 809 436 1198 503 29
5 61 11 72 13 11 3 49 8 85 12 36 4 74 9 85 11 11 2 79 7 150 10 72 4 131 7
132 8 3 3 143 -2 253 -8z"/>
<path d="M3125 5076 c-55 -25 -91 -69 -101 -124 -1 -8 3 -33 10 -55 8 -28 11
-110 11 -242 -2 -281 -12 -315 -91 -315 -62 0 -112 -23 -157 -73 -49 -56 -70
-102 -63 -139 11 -53 55 -79 170 -101 42 -8 80 -18 84 -22 4 -4 7 -226 8 -493
1 -409 4 -501 18 -573 54 -284 148 -373 269 -255 23 22 47 57 53 77 13 43 10
113 -19 374 -11 93 -15 512 -8 830 l1 61 73 18 c176 45 240 121 188 224 -32
62 -86 97 -181 117 l-55 11 -3 52 c-3 44 8 121 35 252 3 14 6 61 6 105 0 66
-4 90 -25 135 -30 64 -70 111 -115 134 -38 19 -68 20 -108 2z"/>
<path d="M5351 4964 c-83 -24 -113 -76 -114 -200 0 -74 2 -84 30 -125 33 -48
116 -129 151 -148 58 -31 161 27 206 117 17 33 24 116 13 162 -31 137 -167
229 -286 194z"/>
<path d="M3834 4491 c-42 -19 -71 -53 -93 -108 -12 -29 -9 -150 5 -226 2 -12
6 -38 8 -57 15 -113 69 -397 101 -535 14 -60 28 -121 31 -135 5 -25 25 -89 74
-246 108 -340 251 -541 398 -561 110 -15 212 151 320 522 45 151 118 458 141
590 6 33 13 71 16 85 4 22 18 102 30 180 13 88 19 170 20 275 0 135 -13 173
-72 208 -66 38 -163 11 -208 -57 -21 -32 -22 -38 -29 -237 -4 -96 -9 -188 -10
-204 -2 -17 -7 -75 -11 -130 -3 -55 -8 -107 -10 -115 -2 -8 -7 -44 -10 -80
-19 -197 -69 -456 -101 -527 -23 -51 -62 -103 -77 -103 -21 0 -96 181 -150
360 -33 106 -99 388 -111 470 -9 62 -18 112 -22 134 -13 59 -16 258 -5 321 14
76 15 74 -69 136 -78 58 -109 65 -166 40z"/>
<path d="M2267 4428 c-34 -35 -73 -76 -87 -93 -44 -54 -205 -278 -265 -367
-32 -49 -61 -88 -65 -88 -3 0 -34 73 -69 163 -100 257 -144 333 -221 376 -39
22 -73 23 -135 5 -35 -11 -87 -67 -115 -127 l-28 -59 43 -66 c95 -147 292
-512 321 -595 13 -37 13 -39 -25 -95 -170 -251 -389 -630 -441 -762 -55 -137
-4 -259 136 -325 59 -28 79 -31 87 -12 3 6 21 53 41 102 20 50 41 100 46 113
6 12 14 32 19 45 5 12 26 57 45 100 20 44 36 81 36 84 0 9 149 300 182 356
l35 58 31 -48 c16 -26 67 -113 112 -193 107 -187 132 -223 200 -290 103 -100
191 -126 282 -82 103 50 130 90 130 191 0 121 5 112 -46 95 -74 -25 -93 -18
-153 61 -136 177 -363 536 -363 576 0 14 43 86 77 129 6 8 81 103 165 210 221
280 268 353 268 418 0 44 -48 130 -88 157 -59 40 -84 34 -155 -37z"/>
<path d="M5379 4388 c-57 -17 -68 -25 -91 -61 l-27 -42 4 -220 c18 -1087 22
-1739 11 -1840 -35 -325 -144 -462 -339 -424 -94 17 -176 74 -251 172 -52 68
-145 73 -203 12 -20 -20 -34 -46 -34 -62 -5 -99 9 -135 78 -206 86 -89 317
-228 452 -272 76 -25 178 -17 257 20 115 54 223 196 282 371 58 171 62 221 55
819 -9 814 -9 1335 -1 1385 8 43 22 107 49 218 12 52 12 53 -17 83 -63 66
-120 78 -225 47z"/>
</g>
</svg>
