<?xml version="1.0" encoding="utf-8"?>
<!-- Generator: Adobe Illustrator 25.0.1, SVG Export Plug-In . SVG Version: 6.00 Build 0)  -->
<svg version="1.1" id="图层_1" xmlns="http://www.w3.org/2000/svg" xmlns:xlink="http://www.w3.org/1999/xlink" x="0px" y="0px"
	 viewBox="0 0 203 203" style="enable-background:new 0 0 203 203;" xml:space="preserve">
<style type="text/css">
	.st0{fill-rule:evenodd;clip-rule:evenodd;fill:#005678;}
	.st1{fill:none;stroke:#235465;stroke-width:10;stroke-linejoin:round;}
</style>
<g>
	<g>
		<path class="st0" d="M74.3,122.5c0,1.2-0.7,2.4-2.2,3.4s-2.7,1.6-3.8,1.6c-2.9,0-6-2.3-9.1-6.9c-2.2-3.8-4.4-7.7-6.7-11.6
			c-2.9,4.2-7,12.7-12,25.4c-4.6-1.2-7-3.8-7-7.6c0-2.8,4.9-11.6,14.6-26.5c-0.2-1.2-1.8-4.5-4.9-10c-2.7-5-4.7-8.4-6-10.1
			c1.2-3.9,3.3-5.9,6.3-5.9c2.2,0,4.3,2.2,6.2,6.5c1.3,3.3,2.6,6.7,3.9,10c8-12,12.8-18,14.6-18c1.2,0,2.3,0.6,3.2,1.8
			c0.9,1.2,1.4,2.5,1.4,4c0,1.4-2.5,5.1-7.4,11.1s-7.4,9.4-7.4,10.3c0,1,2,4.4,5.9,10.2s6.2,8.8,6.7,8.8c0.6,0,1.9-0.3,3.7-0.9
			L74.3,122.5L74.3,122.5z"/>
		<path class="st0" d="M104.1,81.4c0,2.2-2.7,3.8-8.1,4.8c-0.1,1.8-0.2,6-0.2,12.5v8.2c0,1.7,0.2,4.1,0.6,7.4
			c0.4,3.2,0.6,5.7,0.6,7.2c0,1.3-0.5,2.5-1.6,3.6c-1,1-2.1,1.6-3.1,1.6c-1.6,0-3-1.8-4.1-5.4c-0.8-2.8-1.3-5.4-1.3-8V86.8
			c-3-0.6-4.7-1-5.2-1.1C80,85,79.2,84,79.2,82.8c0-0.3,0.1-0.7,0.2-1.1c1.7-3.1,3.6-4.6,5.7-4.6c0.1,0,0.3,0,0.6,0
			c0.3,0.1,0.5,0.1,0.6,0.1c1.4,0,2-2,2-6.1v-9.1c-0.4-0.9-0.6-1.7-0.6-2.4c0-1.1,0.5-2.1,1.5-2.9c1-0.9,2-1.3,2.9-1.3
			c1.4,0,2.7,0.8,3.9,2.4c1.2,1.6,1.9,3.3,1.9,5.2c0,2-0.2,4-0.7,5.9s-0.7,4-0.6,6.1v0.5C101.5,76.1,104.1,78.1,104.1,81.4z"/>
		<path class="st0" d="M141.8,78.3c0,6-1.5,15.2-4.5,27.5c-3.5,14.2-7,21.2-10.3,21.2c-4.8,0-9-6-12.7-17.9
			c-2.3-7.4-4.1-16.1-5.6-26c-0.3-2.4-0.5-4.3-0.5-5.6s0.5-2.5,1.4-3.6c0.9-1,1.9-1.6,3-1.6c1.2,0,3.2,1.2,5.8,3.6
			c-0.5,1.9-0.7,3.5-0.7,4.9c0,4.5,0.9,10.4,2.6,17.6c1.7,7.2,3.6,12.7,5.6,16.4v0.4c2.3,0,4.2-5.7,5.5-17
			c0.9-7.8,1.4-14.8,1.4-21.2c0-1.2,0.5-2.3,1.5-3.2s2-1.4,3-1.4C140.3,72.4,141.8,74.3,141.8,78.3z"/>
		<path class="st0" d="M163.7,66.6c0,1.8-0.6,3.3-1.8,4.6c-1.2,1.2-2.5,1.8-4,1.8c-0.7,0-1.8-0.8-3.2-2.2c-1.2-1.2-2.1-2.4-2.7-3.4
			c-0.1-0.8-0.2-1.7-0.2-2.6c0-4,1.6-6,4.9-6c1.8,0,3.5,0.8,4.9,2.2C162.9,62.5,163.7,64.4,163.7,66.6z M163.4,78.1
			c-1.4,5.1-2.2,9-2.2,11.8c0,5.3,0.1,13.4,0.3,24.2c0.2,10.8,0.3,18.9,0.3,24.3c0,6.1-1.2,11.3-3.7,15.8c-2.7,4.9-6.4,7.4-11,7.4
			c-2.4,0-5.9-1.5-10.6-4.4c-5.1-3.1-7.6-5.9-7.6-8.5c0-3,1.3-4.5,4-4.5c0.7,0,1.5,0.2,2.3,0.6c2.7,4.2,6,6.2,9.9,6.2
			c5.5,0,8.2-6.4,8.2-19.1c0-0.4-0.2-18.2-0.7-53.2l1.6-2.4c2.2-0.8,3.8-1.1,4.6-1.1C160.3,75.1,161.8,76.1,163.4,78.1z"/>
	</g>
	<path class="st1" d="M6.3,101.5c0-26.3,10.7-50.1,27.9-67.4C51.4,16.9,75.2,6.2,101.5,6.2s50.1,10.7,67.4,27.9
		c17.2,17.2,27.9,41.1,27.9,67.4s-10.7,50.1-27.9,67.4s-41.1,27.9-67.4,27.9s-50.1-10.7-67.4-27.9C16.9,151.6,6.3,127.8,6.3,101.5z"
		/>
</g>
</svg>
