<?xml version="1.0" encoding="utf-8"?>
<!-- Generator: Adobe Illustrator 23.1.1, SVG Export Plug-In . SVG Version: 6.00 Build 0)  -->
<svg version="1.1" id="图层_1" xmlns="http://www.w3.org/2000/svg" xmlns:xlink="http://www.w3.org/1999/xlink" x="0px" y="0px"
	 viewBox="0 0 258 203" style="enable-background:new 0 0 258 203;" xml:space="preserve">
<style type="text/css">
	.st0{fill-rule:evenodd;clip-rule:evenodd;fill:#005678;}
	.st1{fill:none;stroke:#235465;stroke-width:10;stroke-linejoin:round;}
</style>
<g>
	<g>
		<path class="st0" d="M94.06,122.56c0,1.25-0.92,2.4-2.75,3.44c-1.83,1.04-3.46,1.56-4.88,1.56c-3.75,0-7.62-2.29-11.62-6.88
			c-2.83-3.83-5.67-7.71-8.5-11.62c-3.75,4.25-8.88,12.71-15.38,25.38c-5.92-1.25-8.88-3.79-8.88-7.62c0-2.75,6.21-11.58,18.62-26.5
			c-0.25-1.17-2.33-4.5-6.25-10c-3.5-5-6.04-8.38-7.62-10.12c1.5-3.92,4.17-5.88,8-5.88c2.83,0,5.46,2.17,7.88,6.5
			c1.67,3.33,3.33,6.67,5,10c10.17-12,16.38-18,18.62-18c1.58,0,2.96,0.58,4.12,1.75c1.17,1.17,1.75,2.5,1.75,4
			c0,1.42-3.17,5.1-9.5,11.06c-6.33,5.96-9.5,9.4-9.5,10.31c0,1,2.5,4.42,7.5,10.25c5,5.83,7.88,8.75,8.62,8.75
			c0.83,0,2.42-0.29,4.75-0.88V122.56z"/>
		<path class="st0" d="M132.06,81.44c0,2.25-3.46,3.83-10.38,4.75c-0.17,1.83-0.25,6-0.25,12.5v8.25c0,1.67,0.27,4.12,0.81,7.38
			c0.54,3.25,0.81,5.67,0.81,7.25c0,1.33-0.67,2.52-2,3.56c-1.33,1.04-2.67,1.56-4,1.56c-2.08,0-3.83-1.79-5.25-5.38
			c-1.08-2.75-1.62-5.42-1.62-8v-26.5c-3.83-0.58-6.04-0.96-6.62-1.12c-2.17-0.67-3.25-1.62-3.25-2.88c0-0.33,0.08-0.71,0.25-1.12
			c2.17-3.08,4.58-4.62,7.25-4.62c0.17,0,0.42,0,0.75,0c0.33,0.08,0.58,0.12,0.75,0.12c1.75,0,2.58-2.04,2.5-6.12v-9.12
			c-0.5-0.92-0.75-1.71-0.75-2.38c0-1.08,0.65-2.06,1.94-2.94c1.29-0.88,2.52-1.31,3.69-1.31c1.75,0,3.42,0.81,5,2.44
			c1.58,1.62,2.38,3.35,2.38,5.19c0,2-0.31,3.98-0.94,5.94s-0.9,3.98-0.81,6.06v0.5C128.81,76.1,132.06,78.1,132.06,81.44z"/>
		<path class="st0" d="M180.31,78.31c0,6-1.92,15.17-5.75,27.5c-4.5,14.17-8.88,21.25-13.12,21.25c-6.08,0-11.5-5.96-16.25-17.88
			c-2.92-7.42-5.29-16.08-7.12-26c-0.42-2.42-0.62-4.29-0.62-5.62c0-1.33,0.6-2.52,1.81-3.56c1.21-1.04,2.48-1.56,3.81-1.56
			c1.58,0,4.04,1.21,7.38,3.62c-0.58,1.92-0.88,3.54-0.88,4.88c0,4.5,1.1,10.38,3.31,17.62c2.21,7.25,4.6,12.71,7.19,16.38v0.38
			c3,0,5.33-5.67,7-17c1.17-7.75,1.75-14.83,1.75-21.25c0-1.25,0.65-2.33,1.94-3.25c1.29-0.92,2.56-1.38,3.81-1.38
			C178.39,72.44,180.31,74.39,180.31,78.31z"/>
		<path class="st0" d="M208.18,66.69c0,1.83-0.77,3.35-2.31,4.56c-1.54,1.21-3.23,1.81-5.06,1.81c-0.92,0-2.29-0.75-4.12-2.25
			c-1.5-1.25-2.67-2.38-3.5-3.38c-0.17-0.83-0.25-1.71-0.25-2.62c0-4,2.08-6,6.25-6c2.33,0,4.42,0.75,6.25,2.25
			C207.27,62.56,208.18,64.44,208.18,66.69z M207.81,78.19c-1.83,5.08-2.75,9-2.75,11.75c0,5.33,0.12,13.4,0.38,24.19
			s0.38,18.9,0.38,24.31c0,6.08-1.58,11.33-4.75,15.75c-3.5,4.92-8.17,7.38-14,7.38c-3.08,0-7.58-1.46-13.5-4.38
			c-6.5-3.08-9.75-5.92-9.75-8.5c0-3,1.71-4.5,5.12-4.5c0.92,0,1.88,0.21,2.88,0.62c3.5,4.17,7.71,6.25,12.62,6.25
			c7,0,10.5-6.38,10.5-19.12c0-0.42-0.29-18.17-0.88-53.25l2-2.38c2.83-0.75,4.79-1.12,5.88-1.12
			C203.85,75.19,205.81,76.19,207.81,78.19z"/>
	</g>
	<path class="st1" d="M7.15,101.55c0-26.31,13.62-50.13,35.63-67.37c22.02-17.24,52.43-27.9,86.03-27.9
		c33.6,0,64.01,10.66,86.03,27.9c22.02,17.24,35.64,41.06,35.64,67.37s-13.62,50.12-35.64,67.36c-22.02,17.24-52.43,27.9-86.03,27.9
		c-33.6,0-64.01-10.66-86.03-27.9C20.77,151.67,7.15,127.85,7.15,101.55z"/>
</g>
</svg>
